PathFileType	4	(X/Y/Z)	Patient4_TMGait_0pt4_03_right_06.trc.trc
DataRate	CameraRate	NumFrames	NumMarkers	Units	OrigDataRate	OrigDataStartFrame	OrigNumFrames
74.468085106383	74.468085106383	4	33	mm	74.468085106383	124	       141
Frame#	Time	Sacral			L.Shoulder			Chest			R.Shoulder			Neck			R.ASIS			L.ASIS			R.Thigh.Superior			R.Thigh.Lateral			R.Thigh.Inferior			R.Patella			L.Thigh.Superior			L.Thigh.Lateral			L.Thigh.Inferior			L.Patella			L.Shank.Superior			L.Shank.Lateral			L.Shank.Inferior			R.Shank.Superior			R.Shank.Lateral			R.Shank.Inferior			R.Heel			R.Midfoot.Superior			R.Midfoot.Lateral			R.Toe			L.Heel			L.Midfoot.Lateral			L.Midfoot.Superior			L.Toe			L.Elbow			L.Wrist			R.Elbow			R.Wrist			
		X1	Y1	Z1	X2	Y2	Z2	X3	Y3	Z3	X4	Y4	Z4	X5	Y5	Z5	X6	Y6	Z6	X7	Y7	Z7	X8	Y8	Z8	X9	Y9	Z9	X10	Y10	Z10	X11	Y11	Z11	X12	Y12	Z12	X13	Y13	Z13	X14	Y14	Z14	X15	Y15	Z15	X16	Y16	Z16	X17	Y17	Z17	X18	Y18	Z18	X19	Y19	Z19	X20	Y20	Z20	X21	Y21	Z21	X22	Y22	Z22	X23	Y23	Z23	X24	Y24	Z24	X25	Y25	Z25	X26	Y26	Z26	X27	Y27	Z27	X28	Y28	Z28	X29	Y29	Z29	X30	Y30	Z30	X31	Y31	Z31	X32	Y32	Z32	X33	Y33	Z33	

124	8.411714285714	808.882459520149	998.791335734315	433.355847967586	995.181357498309	1427.695537969684	255.557272401732	1081.552509295012	1367.120032060941	429.191732833201	976.567294044772	1441.679656113572	590.937242056915	963.818512463200	1493.743739516396	408.644870554206	1028.298587467554	942.505440065630	573.472275074689	1041.482685811275	963.788724287289	296.318369271129	1094.852242190199	753.736162326587	555.499629263565	1030.350724603917	636.968200935275	622.786323375323	1122.373440725925	592.437255815962	550.900146861653	1143.665806257110	508.810964223802	567.034180826798	1049.495961561901	736.235684491235	326.439845115711	941.327130686464	636.029400183614	255.670460691080	1002.409428012939	546.001353166715	322.119477209900	989.138525455583	479.611243278086	330.138568579863	958.766963731201	411.808684882487	319.584825339895	860.365091172640	305.216672326203	264.640278153950	900.556798349384	189.792728432811	337.306107978175	1120.481072500258	420.136511995040	578.858158647905	1053.770549997440	314.259323621863	642.552377952755	1115.505525382383	220.762202897536	595.227413314638	1007.371756418606	45.334896986781	570.842431025091	1174.880063871997	104.196106528966	609.859564972738	1089.951659270640	39.339533349718	645.675017475820	1295.691939695656	58.333511100403	638.535447321081	764.797777318262	39.126362049686	380.968475935579	837.015470731730	34.610137325664	298.963383478814	920.870080577337	95.476408978227	325.931032259789	1049.002489670015	43.375223123024	294.707328389132	1034.128683985719	1083.177042820973	127.110047566861	1281.542264107949	1004.015565084718	135.890673613082	858.056108404560	1120.242471407356	710.675124630710	884.715138845703	860.707887274869	735.876156718903	
125	8.425142857143	811.056463678747	997.819183097323	436.064510831219	995.448472167028	1427.159492794131	258.261652903518	1082.049635944367	1367.142176782536	431.956087624093	976.565507874891	1441.129107861885	593.676314259292	963.594290865714	1493.127287424636	411.327648999389	1030.817421727168	941.763288129653	575.827286001373	1043.426358811798	963.135261424547	298.843420314141	1097.169363644513	752.143980920894	557.211419001145	1031.008872270685	635.367147831533	622.797277520823	1123.206400238726	591.062077144947	551.240336629281	1143.217813489954	506.270324738205	566.504238834270	1050.505440276138	735.268431031830	327.506410433776	940.731820328342	635.890411760259	257.442780659268	1001.643965808671	545.161516337381	323.045772559741	988.055895942763	478.525696152135	330.980715865791	956.812484629687	411.190985459263	320.409095049574	856.937203054504	305.817613946984	265.628483635601	896.214958222269	189.504963530667	337.511727951177	1118.457831455178	417.109740705989	578.147826090636	1049.588884521962	312.209975979735	641.451118251678	1108.981332249612	217.546163380189	593.436725668942	996.812997539981	44.351928747377	569.202284187807	1165.175962297242	101.287539478689	607.379398927278	1079.417816830275	38.026726700470	644.075830918959	1285.734812272620	53.991058617263	636.187887899289	759.399925280306	39.347710596413	380.870762494397	831.682432297198	34.682793856734	298.984737974605	915.674445976368	95.467101420424	325.875686094273	1043.766728510404	42.898221973567	294.678045797313	1035.277954467478	1082.467007485267	130.289144492539	1283.393379139545	1005.545507012610	138.386269541528	860.233931205250	1118.887090298144	713.508943057052	891.454206568295	859.629996975844	737.795773766412	
126	8.438571428571	813.205098070431	997.015712201324	438.886071284309	995.806627648909	1426.761354266050	261.096729699953	1082.649582158053	1367.236498070699	434.827087794988	976.732246175100	1440.674323153465	596.548872522806	963.503884732200	1492.648878549285	414.159684396091	1033.309182823726	941.206725728101	578.269261587303	1045.279632274949	962.572911554294	301.480968574915	1099.374713891846	750.789620648701	558.860631657881	1031.912564939704	634.220613800420	623.172240041411	1124.029179016817	589.981520961977	551.699319337764	1142.891724285666	504.105426486917	566.305140770256	1051.663685097589	734.447833450959	328.630445625574	940.395001159442	635.804065706497	259.334268655333	1001.287719682366	544.394612145646	324.029078399007	987.463096947234	477.411078559013	331.836098897943	955.203746373032	410.563048603326	321.278573153498	853.726156917829	306.546622638687	266.700111113981	892.012854574778	189.286737519510	337.704706710674	1116.796598846791	414.605684178224	577.861006502074	1046.277571695197	310.563919610826	641.004502863170	1103.434924130558	214.926382256796	592.183891547114	987.704895224940	43.595192341203	568.223940738127	1156.749864436706	99.233143619723	605.545279067318	1070.395294104742	37.172174101889	643.077611252718	1277.177937230169	50.823203801407	634.387861450562	754.003647289713	39.730102391781	380.737570425866	826.373548557537	34.804308328288	298.997702770003	910.545526512208	95.492036134812	325.775352230905	1038.569470364157	42.383073141566	294.623573584855	1036.157662248732	1081.856095805239	133.517347969107	1284.747225356503	1006.331710178496	140.899761538597	863.092170310937	1117.421889536933	716.600212142809	899.278779687312	858.561658566157	739.912754012356	
127	8.452000000000	815.288748647685	996.432634921967	441.789462998793	996.277087204450	1426.553519713553	264.042555375114	1083.356017502758	1367.428028782346	437.783137679964	977.082385497176	1440.360440517012	599.528072633119	963.557592279722	1492.348335979887	417.127010263665	1035.707669310435	940.874202405683	580.808149055598	1047.031868641373	962.149965158850	304.219657304228	1101.426386960515	749.756110495204	560.480480966634	1033.066153975957	633.556456903133	623.992245822566	1124.829599964327	589.212350368463	552.356708395051	1142.654574370244	502.368702982641	566.556744430837	1052.940803162646	733.817543241768	329.878075040118	940.367882885892	635.783808726222	261.334034668424	1001.401617023942	543.729337141258	325.080395490392	987.430885533467	476.283673442195	332.677485072489	953.987238693951	409.944100623419	322.174633428983	850.774335682476	307.442308297108	267.840780870721	887.979095811927	189.180384057944	337.873835834514	1115.470532114147	412.655413642395	578.039264868605	1043.792403552687	309.335891464905	641.206979864722	1098.841450027183	212.932001355026	591.481443160681	980.043076113285	43.088367349787	567.813530709711	1149.604910620649	97.976216710891	604.388954124923	1062.847147130541	36.714663245082	642.611516864522	1269.981284312672	48.714317931782	633.181117572566	748.622186299976	40.358807435177	380.564388441327	821.095696227459	35.012411225210	298.996718578824	905.509121944444	95.565188352084	325.615305232670	1033.408922166815	41.837387018432	294.541372128609	1036.750724344086	1081.395995596478	136.797570034226	1285.580548462579	1006.360972170716	143.434483106250	866.591435628664	1115.938258298510	719.934735733083	908.139321085849	857.628548793628	742.223702147524	
